<?xml version="1.0" encoding="utf-8"?>
<!-- Generator: Adobe Illustrator 15.0.0, SVG Export Plug-In . SVG Version: 6.00 Build 0)  -->
<!DOCTYPE svg PUBLIC "-//W3C//DTD SVG 1.1//EN" "http://www.w3.org/Graphics/SVG/1.1/DTD/svg11.dtd">
<svg version="1.1" id="Layer_1" xmlns="http://www.w3.org/2000/svg" xmlns:xlink="http://www.w3.org/1999/xlink" x="0px" y="0px"
	 width="21.6px" height="21.6px" viewBox="0 0 21.6 21.6" enable-background="new 0 0 21.6 21.6" xml:space="preserve">
<g>
	<rect x="0.3" y="0.3" fill="#59ACE1" width="21" height="21"/>
	<path fill="#FFFFFF" d="M17.981,6.346c0,0-0.713,0.32-1.676,0.495c-0.004-0.009-0.008-0.018-0.01-0.028
		c1.02-0.697,1.287-1.633,1.287-1.633s-0.812,0.512-1.869,0.714c-0.533-0.576-1.297-0.935-2.145-0.935
		c-1.617,0-2.929,1.311-2.929,2.929c0,0.242,0.029,0.476,0.084,0.7c0,0-3.573,0.062-6.106-3.078c0,0-1.304,2.039,0.9,3.894
		c-0.624,0.091-1.341-0.33-1.341-0.33s0.035,2.35,2.368,2.9c-0.716,0.258-1.286,0.094-1.286,0.094s0.533,1.908,2.682,2.02
		c-1.743,1.616-4.324,1.279-4.324,1.279c1.294,0.809,2.821,1.275,4.459,1.275c4.652,0,8.423-3.771,8.423-8.423V7.92
		C16.948,7.55,17.63,6.935,17.981,6.346z"/>
</g>
</svg>
