<?xml version="1.0" encoding="utf-8"?>
<!-- Generator: Adobe Illustrator 15.0.0, SVG Export Plug-In . SVG Version: 6.00 Build 0)  -->
<!DOCTYPE svg PUBLIC "-//W3C//DTD SVG 1.1//EN" "http://www.w3.org/Graphics/SVG/1.1/DTD/svg11.dtd">
<svg version="1.1" id="Layer_1" xmlns="http://www.w3.org/2000/svg" xmlns:xlink="http://www.w3.org/1999/xlink" x="0px" y="0px"
	 width="21.6px" height="21.6px" viewBox="0 0 21.6 21.6" enable-background="new 0 0 21.6 21.6" xml:space="preserve">
<g>
	<path fill="#CA2E23" d="M0.299,0.299v21.003h21.002V0.299H0.299z M12.959,7.665c0-1.07,0-2.229,0-3.246
		c-0.001-0.014-0.001-0.028,0.01-0.029c0.335,0,0.669,0,1.003,0c0,1.022,0,2.305,0,3.422c0,0.229-0.005,0.446,0.139,0.511
		c0.226,0.104,0.448-0.09,0.58-0.177c0-1.252,0-2.505,0-3.757c0.337,0.006,0.701-0.013,1.023,0.009c0,1.541,0,3.082,0,4.623
		c-0.292,0.023-0.627,0.003-0.936,0.01c-0.033-0.119-0.06-0.248-0.078-0.383c-0.06,0.012-0.114,0.059-0.168,0.098
		c-0.214,0.161-0.46,0.376-0.875,0.344c-0.302-0.023-0.529-0.176-0.629-0.413C12.92,8.423,12.959,8.041,12.959,7.665z M9.595,4.941
		c0.179-0.354,0.541-0.55,1.053-0.59c0.802-0.063,1.336,0.192,1.515,0.777c0.077,0.256,0.068,0.62,0.068,1.023
		c0,0.331,0,0.741,0,1.091c0,0.402,0.017,0.77-0.059,1.033c-0.079,0.275-0.237,0.497-0.463,0.629
		c-0.347,0.204-0.847,0.231-1.288,0.147c-0.366-0.069-0.708-0.264-0.865-0.649c-0.15-0.367-0.099-1.231-0.099-1.75
		C9.457,5.947,9.377,5.374,9.595,4.941z M5.898,2.807c0.39,0,0.779,0,1.17,0c0.156,0.675,0.364,1.34,0.512,2.045
		c0.019,0.093,0.016,0.204,0.078,0.285c0.071-0.189,0.106-0.39,0.147-0.59C7.926,3.959,8.1,3.378,8.247,2.807
		c0.381,0,0.761,0,1.141,0C9.058,3.865,8.68,4.934,8.326,6.003c-0.05,0.15-0.127,0.312-0.147,0.452c-0.03,0.201,0,0.436,0,0.649
		c0,0.639,0,1.273,0,1.927c-0.361,0-0.722,0-1.082,0c0-0.654,0-1.279,0-1.937c0-0.211,0.027-0.438,0-0.64
		c-0.02-0.144-0.098-0.31-0.147-0.462C6.605,4.952,6.228,3.879,5.898,2.836C5.884,2.834,5.884,2.807,5.898,2.807z M19.082,15.797
		c0,1.655-1.342,2.997-2.997,2.997H5.515c-1.655,0-2.996-1.342-2.996-2.997v-2.331c0-1.654,1.341-2.996,2.996-2.996h10.57
		c1.655,0,2.997,1.341,2.997,2.996V15.797z"/>
	<path fill="#CA2E23" d="M10.481,7.449c0,0.235-0.034,0.556,0.038,0.708c0.095,0.194,0.414,0.233,0.562,0.118
		c0.142-0.111,0.138-0.408,0.138-0.708c0-0.663,0-1.065,0-1.711c0-0.274,0.02-0.59-0.147-0.708
		c-0.076-0.054-0.227-0.056-0.285-0.049c-0.38,0.047-0.305,0.485-0.305,0.866c0,0.225,0,0.483,0,0.748
		C10.481,7.005,10.481,7.148,10.481,7.449z"/>
	<path fill="#FFFFFF" d="M15.617,13.955c-0.114-0.148-0.46-0.15-0.571,0.01c-0.135,0.196,0,0.601-0.049,0.896
		c0.227,0,0.452,0,0.679,0C15.623,14.585,15.77,14.154,15.617,13.955z"/>
	<path fill="#FFFFFF" d="M16.085,10.47H5.515c-1.655,0-2.996,1.341-2.996,2.996v2.331c0,1.655,1.341,2.997,2.996,2.997h10.57
		c1.655,0,2.997-1.342,2.997-2.997v-2.331C19.082,11.812,17.74,10.47,16.085,10.47z M7.858,12.519c-0.321,0-0.643,0-0.964,0
		c0,1.637,0,3.272,0,4.908c-0.328,0-0.656,0-0.983,0c0-1.636,0-3.271,0-4.908c-0.309,0-0.616,0-0.924,0c0-0.238,0-0.479,0-0.717
		c-0.001-0.018,0.007-0.025,0.02-0.029c0.95,0,1.9,0,2.852,0C7.858,12.021,7.858,12.271,7.858,12.519z M10.571,17.427
		c-0.285,0-0.571,0-0.856,0c-0.021-0.115-0.052-0.224-0.068-0.344c-0.269,0.201-0.776,0.596-1.278,0.305
		c-0.33-0.191-0.305-0.637-0.305-1.2c0-0.969,0-2.025,0-2.94c-0.001-0.014-0.002-0.027,0.009-0.029c0.306,0,0.61,0,0.915,0
		c0,0.844,0,1.82,0,2.744c0,0.274-0.051,0.703,0.099,0.807c0.184,0.126,0.419-0.053,0.551-0.129c0-1.141,0-2.281,0-3.422
		c0.312,0,0.622,0,0.935,0C10.571,14.62,10.571,16.024,10.571,17.427z M13.573,17.093c-0.081,0.213-0.304,0.365-0.541,0.393
		c-0.442,0.051-0.731-0.243-0.983-0.442c0,0.128,0,0.257,0,0.384c-0.308,0-0.616,0-0.925,0c0-1.875,0-3.75,0-5.625
		c0-0.014-0.001-0.029,0.011-0.029c0.305,0,0.609,0,0.914,0c0,0.605,0,1.213,0,1.818c0.252-0.182,0.558-0.465,0.975-0.423
		c0.234,0.024,0.471,0.173,0.55,0.384c0.081,0.215,0.06,0.558,0.06,0.855c0,0.607,0,1.219,0,1.83
		C13.632,16.543,13.651,16.889,13.573,17.093z M16.591,15.46c-0.528,0-1.057,0-1.584,0c0.042,0.361-0.142,1.125,0.128,1.298
		c0.152,0.098,0.412,0.053,0.491-0.099c0.095-0.177,0.016-0.459,0.05-0.707c0.309,0,0.616,0,0.924,0
		c0.049,0.613-0.044,1.024-0.354,1.268c-0.482,0.382-1.458,0.365-1.879-0.059c-0.345-0.349-0.295-0.994-0.295-1.633
		c0-0.801-0.097-1.637,0.266-2.025c0.235-0.252,0.661-0.369,1.181-0.335c0.508,0.034,0.884,0.279,1.022,0.669
		C16.693,14.259,16.558,14.868,16.591,15.46z"/>
	<path fill="#FFFFFF" d="M12.628,13.896c-0.184-0.166-0.469,0.053-0.58,0.139c0,0.865,0,1.73,0,2.596
		c0.153,0.08,0.343,0.271,0.552,0.148c0.127-0.077,0.098-0.412,0.098-0.66c0-0.508,0-1.033,0-1.523
		C12.698,14.363,12.736,13.992,12.628,13.896z"/>
	<path fill="#FFFFFF" d="M6.949,5.993c0.05,0.152,0.128,0.318,0.147,0.462c0.027,0.201,0,0.429,0,0.64c0,0.658,0,1.283,0,1.937
		c0.36,0,0.721,0,1.082,0c0-0.654,0-1.288,0-1.927c0-0.214-0.03-0.448,0-0.649c0.021-0.14,0.098-0.302,0.147-0.452
		C8.68,4.934,9.058,3.865,9.388,2.807c-0.38,0-0.76,0-1.141,0C8.1,3.378,7.926,3.959,7.805,4.548c-0.041,0.2-0.076,0.401-0.147,0.59
		c-0.062-0.081-0.06-0.192-0.078-0.285C7.432,4.147,7.224,3.482,7.068,2.807c-0.391,0-0.78,0-1.17,0c-0.014,0-0.014,0.027,0,0.029
		C6.228,3.879,6.605,4.952,6.949,5.993z"/>
	<path fill="#FFFFFF" d="M9.556,8.403c0.157,0.385,0.499,0.58,0.865,0.649c0.441,0.084,0.941,0.057,1.288-0.147
		c0.226-0.133,0.384-0.354,0.463-0.629c0.075-0.264,0.059-0.631,0.059-1.033c0-0.351,0-0.76,0-1.091
		c0-0.403,0.009-0.767-0.068-1.023c-0.179-0.584-0.713-0.84-1.515-0.777c-0.512,0.04-0.874,0.236-1.053,0.59
		C9.377,5.374,9.457,5.947,9.457,6.652C9.457,7.171,9.406,8.036,9.556,8.403z M10.785,5.098c0.059-0.007,0.209-0.004,0.285,0.049
		c0.167,0.118,0.147,0.434,0.147,0.708c0,0.646,0,1.048,0,1.711c0,0.3,0.004,0.597-0.138,0.708
		c-0.147,0.115-0.467,0.076-0.562-0.118c-0.072-0.152-0.038-0.473-0.038-0.708c0-0.301,0-0.444,0-0.738c0-0.264,0-0.523,0-0.748
		C10.481,5.583,10.406,5.145,10.785,5.098z"/>
	<path fill="#FFFFFF" d="M13.657,9.091c0.415,0.032,0.661-0.184,0.875-0.344c0.054-0.04,0.108-0.086,0.168-0.098
		c0.019,0.136,0.045,0.264,0.078,0.383c0.309-0.006,0.644,0.014,0.936-0.01c0-1.541,0-3.082,0-4.623
		c-0.322-0.022-0.687-0.003-1.023-0.009c0,1.252,0,2.504,0,3.757c-0.132,0.086-0.354,0.28-0.58,0.177
		c-0.144-0.065-0.139-0.283-0.139-0.511c0-1.117,0-2.4,0-3.422c-0.334,0-0.668,0-1.003,0c-0.011,0.001-0.011,0.015-0.01,0.029
		c0,1.016,0,2.175,0,3.246c0,0.376-0.039,0.757,0.069,1.013C13.128,8.915,13.356,9.068,13.657,9.091z"/>
	<path fill="#CA2E23" d="M4.987,11.802c0,0.238,0,0.479,0,0.717c0.308,0,0.615,0,0.924,0c0,1.637,0,3.272,0,4.908
		c0.327,0,0.655,0,0.983,0c0-1.636,0-3.271,0-4.908c0.321,0,0.643,0,0.964,0c0-0.248,0-0.498,0-0.746c-0.951,0-1.901,0-2.852,0
		C4.993,11.777,4.986,11.784,4.987,11.802z"/>
	<path fill="#CA2E23" d="M13.573,13.552c-0.079-0.211-0.315-0.359-0.55-0.384c-0.417-0.042-0.723,0.241-0.975,0.423
		c0-0.605,0-1.213,0-1.818c-0.305,0-0.609,0-0.914,0c-0.012,0-0.011,0.016-0.011,0.029c0,1.875,0,3.75,0,5.625
		c0.309,0,0.617,0,0.925,0c0-0.127,0-0.256,0-0.384c0.252,0.199,0.541,0.493,0.983,0.442c0.237-0.027,0.46-0.18,0.541-0.393
		c0.078-0.204,0.06-0.55,0.06-0.855c0-0.611,0-1.223,0-1.83C13.632,14.11,13.654,13.767,13.573,13.552z M12.6,16.779
		c-0.209,0.123-0.398-0.068-0.552-0.148c0-0.865,0-1.73,0-2.596c0.111-0.086,0.396-0.305,0.58-0.139
		c0.107,0.097,0.069,0.467,0.069,0.699c0,0.49,0,1.016,0,1.523C12.698,16.366,12.727,16.701,12.6,16.779z"/>
	<path fill="#CA2E23" d="M16.541,13.837c-0.139-0.39-0.515-0.635-1.022-0.669c-0.52-0.034-0.945,0.083-1.181,0.335
		c-0.362,0.389-0.266,1.225-0.266,2.025c0,0.639-0.05,1.284,0.295,1.633c0.421,0.424,1.396,0.44,1.879,0.059
		c0.31-0.243,0.402-0.654,0.354-1.268c-0.308,0-0.615,0-0.924,0c-0.034,0.248,0.045,0.53-0.05,0.707
		c-0.079,0.151-0.339,0.196-0.491,0.099c-0.27-0.173-0.086-0.937-0.128-1.298c0.527,0,1.056,0,1.584,0
		C16.558,14.868,16.693,14.259,16.541,13.837z M15.676,14.861c-0.227,0-0.452,0-0.679,0c0.049-0.295-0.086-0.699,0.049-0.896
		c0.111-0.16,0.457-0.158,0.571-0.01C15.77,14.154,15.623,14.585,15.676,14.861z"/>
	<path fill="#CA2E23" d="M9.636,16.64c-0.132,0.076-0.367,0.255-0.551,0.129c-0.149-0.104-0.099-0.532-0.099-0.807
		c0-0.924,0-1.9,0-2.744c-0.305,0-0.609,0-0.915,0c-0.011,0.002-0.01,0.016-0.009,0.029c0,0.915,0,1.972,0,2.94
		c0,0.563-0.025,1.009,0.305,1.2c0.502,0.291,1.01-0.104,1.278-0.305c0.017,0.12,0.047,0.229,0.068,0.344c0.285,0,0.571,0,0.856,0
		c0-1.403,0-2.807,0-4.209c-0.312,0-0.623,0-0.935,0C9.636,14.359,9.636,15.499,9.636,16.64z"/>
</g>
</svg>
